<svg width="266.868" height="73.759" viewBox="0 0 266.868 73.759" xmlns="http://www.w3.org/2000/svg"><g id="svgGroup" stroke-linecap="round" fill-rule="evenodd" font-size="9pt" stroke="#000" stroke-width="0.25mm" fill="black" style="stroke:#000;stroke-width:0.25mm;fill:black"><path d="M 156.25 72.728 L 98.722 72.728 L 98.722 62.714 L 134.055 14.276 L 98.757 14.276 L 98.757 0.001 L 156.286 0.001 L 156.286 10.015 L 120.952 58.452 L 156.25 58.452 L 156.25 72.728 Z M 230.327 18.325 L 213.281 72.728 L 194.389 72.728 L 218.928 0.001 L 242.33 0.001 L 266.868 72.728 L 247.976 72.728 L 230.895 18.325 L 230.327 18.325 Z M 26.882 72.728 L 0 72.728 L 0 0.001 L 26.847 0.001 A 47.771 47.771 0 0 1 35.984 0.833 A 34.983 34.983 0 0 1 46.005 4.351 A 30.014 30.014 0 0 1 58.416 16.851 A 35.795 35.795 0 0 1 62.007 27.336 A 49.547 49.547 0 0 1 62.784 36.329 A 49.729 49.729 0 0 1 61.951 45.66 A 35.873 35.873 0 0 1 58.434 55.86 A 29.853 29.853 0 0 1 46.023 68.378 A 35.392 35.392 0 0 1 35.386 72.01 A 48.15 48.15 0 0 1 26.882 72.728 Z M 17.578 14.986 L 17.578 57.742 L 26.207 57.742 Q 31.579 57.742 35.508 56.136 A 17.148 17.148 0 0 0 36.559 55.665 A 13.298 13.298 0 0 0 42.37 50.086 A 17.103 17.103 0 0 0 42.987 48.882 Q 45.17 44.177 45.17 36.329 Q 45.17 28.481 42.969 23.811 A 14.902 14.902 0 0 0 40.171 19.711 A 13.105 13.105 0 0 0 36.488 17.064 A 19.432 19.432 0 0 0 31.88 15.539 Q 29.181 14.986 25.959 14.986 L 17.578 14.986 Z M 210.76 57.458 L 210.76 44.106 L 250.249 44.106 L 250.249 57.458 L 210.76 57.458 Z M 71.765 71.143 A 8.948 8.948 0 0 0 78.232 73.758 A 8.659 8.659 0 0 0 82.759 72.515 A 9.892 9.892 0 0 0 86.133 69.177 Q 87.429 67.082 87.464 64.525 A 8.871 8.871 0 0 0 86.826 61.234 A 9.157 9.157 0 0 0 84.641 58.08 A 11.639 11.639 0 0 0 84.367 57.824 A 8.906 8.906 0 0 0 78.232 55.398 A 10.938 10.938 0 0 0 78.172 55.399 A 8.983 8.983 0 0 0 71.68 58.08 A 10.683 10.683 0 0 0 71.586 58.173 Q 68.964 60.826 68.999 64.525 A 10.674 10.674 0 0 0 68.998 64.624 Q 68.998 64.683 68.999 64.741 A 8.729 8.729 0 0 0 71.68 71.059 A 10.777 10.777 0 0 0 71.765 71.143 Z M 170.344 71.143 A 8.948 8.948 0 0 0 176.811 73.758 A 8.659 8.659 0 0 0 181.339 72.515 A 9.892 9.892 0 0 0 184.712 69.177 Q 186.009 67.082 186.044 64.525 A 8.871 8.871 0 0 0 185.406 61.234 A 9.157 9.157 0 0 0 183.221 58.08 A 11.639 11.639 0 0 0 182.947 57.824 A 8.906 8.906 0 0 0 176.811 55.398 A 10.938 10.938 0 0 0 176.751 55.399 A 8.983 8.983 0 0 0 170.259 58.08 A 10.683 10.683 0 0 0 170.166 58.173 Q 167.543 60.826 167.578 64.525 A 10.674 10.674 0 0 0 167.578 64.624 Q 167.578 64.683 167.578 64.741 A 8.729 8.729 0 0 0 170.259 71.059 A 10.777 10.777 0 0 0 170.344 71.143 Z" vector-effect="non-scaling-stroke"/></g></svg>