<?xml version="1.0" standalone="no"?>
<!DOCTYPE svg PUBLIC "-//W3C//DTD SVG 20010904//EN"
 "http://www.w3.org/TR/2001/REC-SVG-20010904/DTD/svg10.dtd">
<svg version="1.0" xmlns="http://www.w3.org/2000/svg"
 width="2136.000000pt" height="2136.000000pt" viewBox="0 0 2136.000000 2136.000000"
 preserveAspectRatio="xMidYMid meet">
<metadata>
Created by potrace 1.14, written by Peter Selinger 2001-2017
</metadata>
<g transform="translate(0.000000,2136.000000) scale(0.100000,-0.100000)"
fill="#000000" stroke="none">
<path d="M10 10720 l0 -2911 1238 4 c680 3 1257 7 1282 10 165 21 231 30 315
46 28 5 57 9 65 9 8 0 48 9 88 20 39 11 72 18 72 15 0 -3 7 0 15 7 8 7 15 10
15 6 0 -3 12 -1 28 5 15 6 34 12 42 14 81 18 341 120 472 186 83 42 232 131
236 141 2 4 10 8 17 8 8 0 22 8 32 18 10 10 43 36 73 57 150 106 345 298 465
460 16 22 32 42 36 45 13 12 109 161 109 170 0 6 4 10 8 10 4 0 13 12 19 28 7
15 32 64 57 110 25 45 43 82 40 82 -3 0 3 12 14 28 10 15 22 36 25 47 3 11 20
54 37 95 29 68 86 232 95 270 1 8 8 35 15 60 7 25 14 52 15 60 2 8 8 38 15 65
18 80 48 257 56 335 2 25 6 61 9 80 24 173 24 643 1 840 -3 19 -7 60 -10 90
-4 30 -9 69 -12 85 -2 17 -9 55 -14 85 -23 136 -24 141 -38 195 -6 22 -13 51
-16 65 -7 35 -40 144 -64 213 -11 31 -18 57 -15 57 3 0 1 6 -5 13 -5 6 -25 50
-42 97 -18 47 -38 92 -46 100 -7 8 -12 17 -11 20 2 8 -67 144 -76 151 -5 3 -7
8 -6 10 4 5 -73 135 -105 178 -14 19 -26 41 -26 48 0 7 -4 13 -8 13 -5 0 -24
21 -42 48 -50 70 -143 176 -240 272 -97 96 -124 119 -230 199 -41 31 -77 58
-80 61 -10 10 -45 31 -62 36 -10 4 -18 10 -18 14 0 4 -17 17 -37 27 -21 11
-74 39 -118 64 -99 56 -309 147 -432 188 -105 35 -344 96 -418 105 -27 4 -59
9 -70 11 -11 3 -37 7 -57 10 -21 3 -53 7 -70 10 -107 16 -290 19 -1405 22
l-1233 4 0 -2911z m2335 1697 c61 -7 122 -15 155 -22 129 -25 187 -38 195 -43
6 -4 15 -7 20 -8 30 -5 146 -51 217 -85 186 -92 345 -240 455 -424 23 -40 85
-165 87 -177 1 -7 7 -22 13 -33 32 -59 93 -322 108 -466 3 -24 7 -54 9 -66 4
-18 20 -359 18 -388 0 -5 -3 -77 -7 -160 -6 -152 -8 -179 -19 -250 -3 -22 -8
-57 -10 -77 -8 -61 -17 -109 -33 -173 -8 -33 -17 -69 -19 -79 -2 -11 -13 -49
-25 -85 -108 -329 -305 -567 -587 -706 -39 -19 -78 -35 -87 -35 -8 0 -15 -4
-15 -10 0 -5 -3 -9 -7 -8 -9 2 -123 -31 -138 -40 -5 -3 -16 -7 -25 -8 -8 0
-49 -8 -90 -17 -41 -9 -100 -18 -130 -22 -30 -3 -73 -9 -95 -12 -52 -8 -905
-11 -910 -3 -3 5 -5 76 -5 143 0 9 1 46 1 82 0 36 0 72 0 80 0 8 0 44 0 80 0
36 0 72 0 80 0 8 0 44 0 80 0 36 0 72 0 80 0 8 0 44 0 80 0 36 0 71 0 78 0 9
0 310 0 402 0 11 0 121 0 245 0 124 0 232 0 240 0 8 0 116 0 240 0 124 0 232
0 240 0 8 0 116 0 240 0 124 0 232 0 240 0 8 0 116 0 240 0 124 0 230 0 235 0
6 -1 26 -2 45 0 19 -1 86 0 147 l1 113 438 -4 c240 -2 460 -6 487 -9z"/>
<path d="M7909 13588 c0 -24 -1 -282 -2 -573 l-2 -530 1408 0 c774 0 1407 -3
1407 -6 0 -5 -348 -487 -415 -574 -8 -11 -33 -45 -55 -75 -22 -30 -43 -60 -47
-65 -4 -6 -24 -33 -43 -60 -19 -28 -40 -57 -47 -65 -6 -8 -30 -40 -52 -70 -22
-30 -45 -60 -51 -67 -5 -7 -10 -15 -10 -18 0 -4 -6 -12 -12 -19 -7 -7 -21 -24
-30 -37 -10 -13 -89 -122 -175 -241 -87 -119 -165 -227 -173 -239 -8 -12 -23
-31 -32 -41 -10 -10 -18 -20 -18 -23 0 -3 -4 -11 -10 -18 -24 -30 -61 -79
-120 -162 -35 -49 -68 -94 -72 -100 -9 -11 -296 -403 -368 -503 -121 -167
-150 -208 -159 -218 -4 -6 -26 -35 -47 -65 -21 -30 -42 -55 -46 -57 -5 -2 -8
-9 -8 -15 0 -7 -13 -27 -28 -45 -39 -47 -55 -68 -118 -156 -30 -43 -60 -84
-65 -90 -5 -6 -42 -56 -81 -111 -40 -55 -76 -104 -81 -110 -4 -5 -61 -84 -127
-175 -66 -91 -126 -174 -134 -185 -8 -11 -51 -69 -96 -130 -45 -60 -85 -117
-89 -125 -4 -8 -7 -193 -7 -410 l1 -395 2304 0 2305 0 0 545 c1 300 -1 557 -2
571 l-4 26 -1404 -1 c-772 -1 -1404 0 -1404 1 0 9 24 53 29 53 4 0 17 18 31
40 14 22 28 40 32 40 5 0 8 5 8 10 0 6 5 16 11 23 9 11 99 132 137 186 9 13
27 36 40 51 12 15 22 32 22 38 0 6 4 12 8 14 8 3 39 44 120 157 9 13 22 29 27
36 6 6 15 18 20 27 10 16 213 295 228 313 4 6 53 72 108 148 55 76 104 144
109 150 6 7 59 79 118 160 59 81 123 169 142 196 19 26 61 83 92 127 75 102
184 252 208 284 10 14 58 79 106 145 48 66 91 122 95 123 5 2 9 8 9 13 0 8 73
113 90 129 3 3 23 31 44 63 22 31 43 57 48 57 4 0 8 4 8 10 0 9 124 185 184
261 12 14 28 36 36 49 8 12 50 69 92 126 43 57 83 114 89 127 7 12 16 24 20
27 5 3 67 87 138 185 72 99 134 185 140 191 5 6 38 51 72 100 35 49 67 94 71
99 5 6 25 33 46 60 l37 50 0 403 0 402 -2302 0 -2303 0 -1 -42z"/>
<path d="M17500 13563 c-12 -38 -25 -77 -30 -88 -9 -20 -110 -321 -115 -340
-1 -5 -5 -17 -8 -25 -14 -38 -59 -167 -62 -180 -2 -8 -20 -62 -40 -120 -20
-58 -38 -112 -40 -120 -2 -8 -21 -62 -40 -120 -20 -58 -38 -112 -41 -120 -2
-8 -26 -80 -54 -160 -28 -80 -52 -149 -54 -155 -1 -5 -11 -35 -21 -65 -11 -30
-20 -57 -20 -60 -2 -11 -47 -146 -55 -165 -5 -11 -21 -58 -36 -105 -15 -47
-32 -91 -37 -97 -5 -7 -7 -13 -4 -13 3 0 -13 -51 -34 -112 -22 -62 -42 -120
-44 -128 -2 -8 -11 -35 -20 -60 -9 -25 -21 -61 -26 -80 -6 -19 -13 -42 -16
-50 -12 -31 -163 -476 -167 -490 -2 -8 -20 -61 -39 -117 -20 -55 -33 -104 -30
-107 4 -3 1 -6 -5 -6 -7 0 -12 -7 -12 -15 0 -8 -14 -54 -31 -103 -17 -48 -32
-91 -33 -97 -4 -20 -39 -120 -45 -130 -3 -5 -7 -16 -8 -22 -5 -20 -9 -37 -16
-53 -3 -8 -15 -44 -27 -80 -11 -36 -24 -72 -27 -80 -3 -8 -7 -17 -8 -20 0 -3
-25 -77 -55 -165 -30 -88 -55 -164 -56 -170 -2 -8 -267 -788 -287 -845 -3 -8
-28 -85 -57 -170 -28 -85 -54 -162 -57 -170 -3 -8 -7 -19 -9 -25 -1 -5 -23
-71 -48 -145 -26 -74 -48 -142 -51 -150 -2 -8 -4 -16 -5 -17 -2 -2 -3 -6 -5
-10 -1 -5 -4 -15 -8 -23 -10 -27 -51 -155 -53 -168 -2 -10 151 -12 753 -10
660 3 757 5 764 18 4 8 20 56 34 105 15 50 35 115 45 145 10 30 32 102 50 160
17 58 38 123 45 145 8 22 32 101 55 175 23 74 50 161 61 193 11 31 22 65 24
75 1 9 17 60 34 112 17 52 31 95 31 96 0 0 -129 0 -286 0 -157 -1 -289 1 -293
4 -11 8 -9 1044 2 1052 14 8 909 9 904 0 -5 -8 -58 -172 -61 -187 -1 -5 -21
-70 -45 -143 -23 -73 -44 -141 -46 -152 -2 -10 -9 -29 -16 -42 -7 -13 -11 -23
-10 -23 1 0 0 -7 -2 -15 -3 -8 -15 -49 -27 -90 -12 -41 -27 -88 -33 -105 -6
-16 -12 -34 -13 -40 -2 -13 -31 -103 -56 -178 -11 -32 -17 -64 -14 -72 4 -11
162 -14 978 -14 535 0 983 0 996 0 28 -1 24 8 119 -301 41 -135 79 -254 84
-265 8 -19 70 -220 75 -240 1 -5 15 -48 30 -95 15 -47 29 -89 30 -95 7 -29 64
-208 69 -216 7 -10 1515 -13 1515 -3 0 8 -188 571 -200 599 -5 11 -14 38 -21
60 -6 22 -15 49 -19 60 -7 17 -13 36 -19 55 -1 3 -24 70 -51 150 -28 80 -52
152 -54 161 -3 9 -12 39 -21 65 -58 166 -97 281 -100 294 -2 8 -68 202 -145
430 -121 356 -211 622 -215 640 -1 3 -4 12 -8 20 -3 8 -18 51 -32 95 -14 44
-30 89 -34 100 -5 11 -15 40 -22 65 -7 25 -16 50 -20 55 -4 6 -10 22 -13 35
-2 14 -19 66 -36 115 -17 50 -33 98 -35 107 -2 9 -9 26 -15 38 -6 12 -14 34
-16 48 -2 15 -8 36 -13 47 -5 11 -30 81 -55 155 -25 74 -71 209 -102 300 -31
91 -58 174 -59 186 -2 11 -8 29 -13 40 -11 20 -23 52 -27 69 -2 6 -17 53 -34
105 -40 119 -40 119 -42 128 -1 6 -15 46 -35 97 -4 11 -8 23 -9 28 -2 4 -4 9
-5 12 -1 3 -4 10 -5 15 -1 6 -3 11 -5 13 -1 1 -3 10 -5 20 -2 10 -7 26 -11 35
-4 9 -8 20 -9 25 -2 4 -3 8 -5 10 -1 1 -3 9 -5 17 -2 8 -56 168 -120 355 -64
187 -117 345 -118 350 -5 18 -58 179 -66 200 -13 34 -32 89 -36 105 -2 8 -4
15 -5 15 0 0 -22 65 -49 145 l-48 145 -941 3 -940 2 -22 -67z m1005 -1475 c12
-38 21 -68 19 -68 -2 0 7 -30 20 -67 13 -38 38 -115 56 -173 17 -58 40 -130
50 -160 41 -128 63 -196 65 -210 2 -8 4 -16 5 -17 3 -3 3 -3 15 -48 4 -16 10
-34 14 -40 3 -5 6 -14 7 -20 1 -5 15 -48 30 -95 15 -47 29 -91 30 -98 1 -7 9
-34 18 -60 30 -89 106 -332 111 -352 6 -25 48 -159 55 -175 9 -21 51 -152 54
-170 7 -33 69 -221 76 -228 4 -5 208 -9 453 -9 l445 1 0 -530 c-1 -291 -3
-529 -7 -530 -3 0 -129 -2 -278 -2 l-273 -2 -9 25 c-9 22 -38 114 -128 405
-14 44 -30 98 -36 120 -7 22 -16 43 -22 47 -5 4 -7 8 -3 8 4 0 -4 32 -17 70
-13 39 -22 70 -19 70 2 0 -2 14 -11 30 -9 17 -13 30 -9 30 4 0 1 7 -6 15 -7 8
-10 15 -7 15 3 0 -1 17 -10 38 -8 20 -14 38 -13 40 1 2 -3 15 -8 30 -6 15 -16
46 -22 70 -7 26 -18 46 -30 50 -10 4 -312 7 -670 7 l-650 0 4 25 c2 14 12 48
21 75 10 28 19 57 20 65 2 8 4 16 5 18 2 1 3 5 4 10 1 4 9 30 18 57 9 28 37
118 63 200 25 83 49 157 52 165 8 18 7 17 17 60 5 19 12 41 17 50 4 8 17 49
29 90 11 41 24 82 27 90 4 8 7 17 8 20 3 13 50 163 73 235 14 44 27 85 28 90
1 6 18 62 39 125 20 63 38 122 40 130 2 8 9 31 16 50 22 64 26 78 32 103 1 6
8 26 14 42 6 17 26 77 43 135 30 99 55 179 65 208 3 7 14 12 26 10 16 -2 26
-19 44 -70z"/>
<path d="M6239 9206 c-2 -2 -29 -7 -59 -10 -142 -15 -266 -67 -382 -161 -32
-26 -58 -51 -58 -57 0 -5 -4 -6 -10 -3 -5 3 -10 2 -10 -4 0 -5 -6 -16 -13 -23
-38 -40 -78 -101 -107 -163 -18 -39 -36 -77 -41 -86 -4 -9 -10 -34 -14 -56 -3
-21 -8 -50 -10 -63 -10 -50 -7 -197 4 -255 36 -182 126 -326 276 -443 78 -61
200 -123 250 -128 6 0 30 -6 55 -13 54 -16 301 -8 335 10 6 3 30 12 55 19 25
8 74 31 109 52 34 21 65 38 67 38 10 0 114 98 154 146 36 42 120 186 120 205
0 9 3 19 7 23 4 3 8 12 10 19 1 7 8 32 14 57 12 51 17 225 8 285 -27 169 -139
341 -304 466 -53 40 -193 109 -226 112 -10 1 -19 4 -19 7 0 3 -8 6 -17 7 -48
2 -136 13 -140 17 -3 3 -16 1 -30 -5 -16 -6 -22 -6 -18 1 6 10 2 14 -6 6z"/>
<path d="M14049 9193 c-73 -11 -188 -42 -199 -53 -3 -3 -23 -14 -45 -25 -58
-29 -137 -88 -184 -138 -51 -54 -121 -147 -121 -161 0 -5 -6 -17 -14 -25 -11
-14 -42 -94 -48 -126 -1 -5 -7 -35 -13 -65 -12 -60 -13 -199 -1 -270 46 -273
281 -520 557 -584 79 -18 269 -18 336 -1 131 36 238 93 332 181 55 50 151 172
151 190 0 4 6 15 14 23 19 22 67 166 74 221 33 257 -52 479 -251 657 -31 28
-163 118 -177 121 -3 0 -17 5 -32 11 -69 26 -144 43 -198 44 -33 1 -60 4 -60
7 0 8 -40 6 -121 -7z"/>
</g>
</svg>
